<svg xmlns="http://www.w3.org/2000/svg" width="1024" height="1024" viewBox="0 0 1024 1024" role="img" aria-label="Git Peek app icon">
  <defs>
    <linearGradient id="tile" x1="184" y1="108" x2="860" y2="910" gradientUnits="userSpaceOnUse">
      <stop offset="0" stop-color="#F8FAFC"/>
      <stop offset="0.45" stop-color="#DCE7F3"/>
      <stop offset="1" stop-color="#8DA0B8"/>
    </linearGradient>
    <linearGradient id="panel" x1="228" y1="168" x2="742" y2="810" gradientUnits="userSpaceOnUse">
      <stop offset="0" stop-color="#2B3039"/>
      <stop offset="1" stop-color="#101318"/>
    </linearGradient>
    <linearGradient id="glass" x1="296" y1="224" x2="710" y2="752" gradientUnits="userSpaceOnUse">
      <stop offset="0" stop-color="#FFFFFF" stop-opacity="0.22"/>
      <stop offset="1" stop-color="#FFFFFF" stop-opacity="0.04"/>
    </linearGradient>
    <filter id="shadow" x="96" y="104" width="832" height="816" filterUnits="userSpaceOnUse" color-interpolation-filters="sRGB">
      <feDropShadow dx="0" dy="34" stdDeviation="34" flood-color="#263343" flood-opacity="0.28"/>
      <feDropShadow dx="0" dy="8" stdDeviation="10" flood-color="#263343" flood-opacity="0.18"/>
    </filter>
    <filter id="nodeShadow" x="0" y="0" width="1024" height="1024" filterUnits="userSpaceOnUse" color-interpolation-filters="sRGB">
      <feDropShadow dx="0" dy="8" stdDeviation="8" flood-color="#000000" flood-opacity="0.24"/>
    </filter>
    <clipPath id="panelClip">
      <rect x="220" y="148" width="584" height="728" rx="86"/>
    </clipPath>
  </defs>

  <rect x="48" y="48" width="928" height="928" rx="204" fill="url(#tile)"/>
  <path d="M184 286C184 168 272 96 394 96h320c128 0 200 86 200 202v430c0 120-78 200-202 200H352c-124 0-214-88-214-212V456c0-74 18-116 46-170Z" fill="#FFFFFF" opacity="0.32"/>

  <g filter="url(#shadow)">
    <rect x="220" y="148" width="584" height="728" rx="86" fill="url(#panel)"/>
    <rect x="220" y="148" width="584" height="728" rx="86" fill="url(#glass)"/>
    <rect x="250" y="184" width="524" height="656" rx="60" fill="none" stroke="#FFFFFF" stroke-opacity="0.12" stroke-width="10"/>
  </g>

  <g clip-path="url(#panelClip)" opacity="0.9">
    <path d="M278 276H746" stroke="#FFFFFF" stroke-opacity="0.08" stroke-width="16" stroke-linecap="round"/>
    <path d="M278 384H746" stroke="#FFFFFF" stroke-opacity="0.07" stroke-width="16" stroke-linecap="round"/>
    <path d="M278 492H746" stroke="#FFFFFF" stroke-opacity="0.06" stroke-width="16" stroke-linecap="round"/>
    <path d="M278 600H746" stroke="#FFFFFF" stroke-opacity="0.05" stroke-width="16" stroke-linecap="round"/>
    <path d="M278 708H746" stroke="#FFFFFF" stroke-opacity="0.05" stroke-width="16" stroke-linecap="round"/>
  </g>

  <g fill="none" stroke-linecap="round" stroke-linejoin="round" filter="url(#nodeShadow)">
    <path d="M360 278V720" stroke="#F0A400" stroke-width="44"/>
    <path d="M360 382C450 382 448 274 560 274H630" stroke="#25B7BA" stroke-width="44"/>
    <path d="M360 512C462 512 468 628 600 628H680" stroke="#48AD62" stroke-width="44"/>
    <path d="M360 642C456 642 456 420 644 420H720" stroke="#9B66E8" stroke-width="44"/>
  </g>

  <g filter="url(#nodeShadow)">
    <circle cx="360" cy="278" r="56" fill="#FFB21C"/>
    <circle cx="360" cy="512" r="56" fill="#F0A400"/>
    <circle cx="360" cy="720" r="56" fill="#F0A400"/>
    <circle cx="630" cy="274" r="56" fill="#35C8CA"/>
    <circle cx="720" cy="420" r="56" fill="#B482FF"/>
    <circle cx="680" cy="628" r="56" fill="#5BD27B"/>
    <circle cx="360" cy="278" r="21" fill="#101318" opacity="0.92"/>
    <circle cx="360" cy="512" r="21" fill="#101318" opacity="0.92"/>
    <circle cx="360" cy="720" r="21" fill="#101318" opacity="0.92"/>
    <circle cx="630" cy="274" r="21" fill="#101318" opacity="0.92"/>
    <circle cx="720" cy="420" r="21" fill="#101318" opacity="0.92"/>
    <circle cx="680" cy="628" r="21" fill="#101318" opacity="0.92"/>
  </g>

  <path d="M700 754C754 728 786 688 804 628C818 694 806 772 772 832C744 826 720 814 700 754Z" fill="#FFFFFF" opacity="0.16"/>
  <path d="M704 754C740 736 766 708 786 668C792 718 784 770 762 810C734 804 714 786 704 754Z" fill="#F8FAFC" opacity="0.8"/>
</svg>
