<?xml version="1.0" encoding="UTF-8"?>
<svg id="Layer_1" xmlns="http://www.w3.org/2000/svg" version="1.1" viewBox="0 0 1024 1024">
  <!-- Generator: Adobe Illustrator 30.5.1, SVG Export Plug-In . SVG Version: 2.1.4 Build 3)  -->
  <defs>
    <clipPath id="tileClip">
      <rect width="840" height="840" rx="206" ry="206"/>
    </clipPath>
    <radialGradient id="dotFade" cx="420" cy="420" r="430" gradientUnits="userSpaceOnUse">
      <stop offset=".62" stop-color="#ffffff"/>
      <stop offset=".82" stop-color="#ffffff" stop-opacity=".58"/>
      <stop offset="1" stop-color="#ffffff" stop-opacity="0"/>
    </radialGradient>
    <mask id="dotFadeMask" x="0" y="0" width="840" height="840" maskUnits="userSpaceOnUse">
      <rect width="840" height="840" rx="206" ry="206" fill="url(#dotFade)"/>
    </mask>
    <pattern id="dotGrid" x="10" y="10" width="104" height="104" patternUnits="userSpaceOnUse">
      <circle cx="52" cy="52" r="13" fill="#ffffff" opacity=".18"/>
    </pattern>
    <style>
      .st0 {
        stroke: #f0a400;
      }

      .st0, .st1 {
        fill: none;
        stroke-linecap: round;
        stroke-linejoin: round;
        stroke-width: 46px;
      }

      .st2 {
        fill: #f0a400;
      }

      .st3 {
        fill: #f0a400;
      }

      .st4 {
        fill: #1f1f1f;
      }

      .st5 {
        fill: #2f86d8;
      }

      .st1 {
        stroke: #2f86d8;
      }

      .st6 {
        fill: #f0a400;
      }
    </style>
  </defs>
  <g transform="translate(92 92)">
    <rect class="st4" width="840" height="840" rx="206" ry="206"/>
    <g clip-path="url(#tileClip)" mask="url(#dotFadeMask)">
      <rect width="840" height="840" fill="url(#dotGrid)"/>
    </g>
    <g opacity=".07" transform="translate(20 24)">
      <g fill="none" stroke="#05070a" stroke-linecap="round" stroke-linejoin="round" stroke-width="78">
        <path d="M356,233v361"/>
        <path d="M356,413h64c61,0,100,43,100,100v7"/>
      </g>
      <g fill="#05070a">
        <circle cx="356" cy="233" r="72"/>
        <circle cx="356" cy="413" r="72"/>
        <circle cx="356" cy="594" r="72"/>
        <circle cx="520" cy="520" r="72"/>
      </g>
    </g>
    <g opacity=".1" transform="translate(11 15)">
      <g fill="none" stroke="#05070a" stroke-linecap="round" stroke-linejoin="round" stroke-width="62">
        <path d="M356,233v361"/>
        <path d="M356,413h64c61,0,100,43,100,100v7"/>
      </g>
      <g fill="#05070a">
        <circle cx="356" cy="233" r="64"/>
        <circle cx="356" cy="413" r="64"/>
        <circle cx="356" cy="594" r="64"/>
        <circle cx="520" cy="520" r="64"/>
      </g>
    </g>
    <g opacity=".13" transform="translate(5 7)">
      <g fill="none" stroke="#05070a" stroke-linecap="round" stroke-linejoin="round" stroke-width="50">
        <path d="M356,233v361"/>
        <path d="M356,413h64c61,0,100,43,100,100v7"/>
      </g>
      <g fill="#05070a">
        <circle cx="356" cy="233" r="58"/>
        <circle cx="356" cy="413" r="58"/>
        <circle cx="356" cy="594" r="58"/>
        <circle cx="520" cy="520" r="58"/>
      </g>
    </g>
    <g>
      <g>
        <path class="st0" d="M356,233v361"/>
        <path class="st1" d="M356,413h64c61,0,100,43,100,100v7"/>
      </g>
      <g>
        <circle class="st6" cx="356" cy="233" r="55"/>
        <circle class="st2" cx="356" cy="413" r="55"/>
        <circle class="st3" cx="356" cy="594" r="55"/>
        <circle class="st5" cx="520" cy="520" r="55"/>
      </g>
    </g>
  </g>
</svg>
