<?xml version="1.0" encoding="UTF-8"?>
<svg id="Layer_1" xmlns="http://www.w3.org/2000/svg" xmlns:xlink="http://www.w3.org/1999/xlink" version="1.1" viewBox="0 0 1024 1024">
  <!-- Generator: Adobe Illustrator 30.5.1, SVG Export Plug-In . SVG Version: 2.1.4 Build 3)  -->
  <defs>
    <style>
      .st0 {
        fill: url(#linear-gradient2);
      }

      .st1 {
        fill: url(#linear-gradient1);
      }

      .st2 {
        fill: url(#linear-gradient3);
      }

      .st3 {
        stroke: #000;
        stroke-width: 48px;
      }

      .st3, .st4, .st5 {
        fill: none;
        stroke-linecap: round;
        stroke-linejoin: round;
      }

      .st6 {
        fill: url(#radial-gradient);
      }

      .st7 {
        fill: url(#linear-gradient);
      }

      .st4 {
        stroke: #1eb7b3;
      }

      .st4, .st5 {
        stroke-width: 44px;
      }

      .st5 {
        stroke: #f0a400;
      }

      .st8 {
        opacity: .22;
      }

      .st9 {
        opacity: .24;
      }

      .st10 {
        fill: url(#radial-gradient1);
      }
    </style>
    <linearGradient id="linear-gradient" x1="72.51" y1="-478.63" x2="952.74" y2="576.13" gradientTransform="translate(0 464)" gradientUnits="userSpaceOnUse">
      <stop offset="0" stop-color="#27292e"/>
      <stop offset=".52" stop-color="#1b1d21"/>
      <stop offset="1" stop-color="#111318"/>
    </linearGradient>
    <radialGradient id="radial-gradient" cx="63.15" cy=".12" fx="63.15" fy=".12" r="1.1" gradientTransform="translate(576 -35016) rotate(90) scale(560 500)" gradientUnits="userSpaceOnUse">
      <stop offset="0" stop-color="#fff" stop-opacity=".08"/>
      <stop offset=".56" stop-color="#fff" stop-opacity=".03"/>
      <stop offset="1" stop-color="#fff" stop-opacity="0"/>
    </radialGradient>
    <linearGradient id="linear-gradient1" x1="402.98" y1="-247.18" x2="518.98" y2="308.82" gradientTransform="translate(0 464)" gradientUnits="userSpaceOnUse">
      <stop offset="0" stop-color="#ffd056"/>
      <stop offset=".5" stop-color="#ffb21c"/>
      <stop offset="1" stop-color="#f09a00"/>
    </linearGradient>
    <linearGradient id="linear-gradient2" x1="359" y1="-238" x2="475" y2="318" gradientTransform="translate(0 464)" gradientUnits="userSpaceOnUse">
      <stop offset="0" stop-color="#ffd056"/>
      <stop offset=".5" stop-color="#ffb21c"/>
      <stop offset="1" stop-color="#f09a00"/>
    </linearGradient>
    <linearGradient id="linear-gradient3" x1="315.02" y1="-228.82" x2="431.02" y2="327.18" gradientTransform="translate(0 464)" gradientUnits="userSpaceOnUse">
      <stop offset="0" stop-color="#ffd056"/>
      <stop offset=".5" stop-color="#ffb21c"/>
      <stop offset="1" stop-color="#f09a00"/>
    </linearGradient>
    <radialGradient id="radial-gradient1" cx="57.26" cy="2.27" fx="57.26" fy="2.27" r="1" gradientTransform="translate(778 -3372) rotate(90) scale(70)" gradientUnits="userSpaceOnUse">
      <stop offset="0" stop-color="#2bd3d0"/>
      <stop offset="1" stop-color="#11908f"/>
    </radialGradient>
  </defs>
  <g transform="translate(92 92) scale(.82)">
  <g>
    <path class="st7" d="M1024 651 C1024 665.243 1024.006 679.483 1023.916 693.726 C1023.847 705.722 1023.709 717.716 1023.384 729.709 C1022.675 755.843 1021.137 782.203 1016.492 808.047 C1011.779 834.264 1004.088 858.664 991.963 882.484 C980.046 905.897 964.474 927.321 945.898 945.898 C927.321 964.474 905.897 980.046 882.484 991.963 C858.664 1004.088 834.264 1011.779 808.047 1016.492 C782.203 1021.137 755.843 1022.675 729.709 1023.384 C717.716 1023.709 705.722 1023.847 693.726 1023.916 C679.483 1024.006 665.243 1024 651 1024 L373 1024 C358.757 1024 344.517 1024.006 330.274 1023.916 C318.278 1023.847 306.284 1023.709 294.291 1023.384 C268.158 1022.675 241.797 1021.137 215.954 1016.492 C189.736 1011.779 165.336 1004.088 141.516 991.963 C118.104 980.046 96.679 964.474 78.103 945.898 C59.526 927.321 43.955 905.897 32.037 882.484 C19.913 858.664 12.221 834.264 7.509 808.047 C2.863 782.203 1.325 755.843 0.617 729.709 C0.291 717.716 0.153 705.722 0.084 693.726 C-0.006 679.483 0 665.243 0 651 L0 373 C0 358.757 -0.006 344.517 0.084 330.274 C0.153 318.278 0.291 306.284 0.617 294.291 C1.325 268.158 2.863 241.797 7.509 215.954 C12.221 189.736 19.913 165.336 32.037 141.516 C43.955 118.104 59.526 96.679 78.103 78.103 C96.679 59.526 118.104 43.955 141.516 32.037 C165.336 19.913 189.736 12.221 215.954 7.509 C241.797 2.863 268.158 1.325 294.291 0.616 C306.284 0.291 318.278 0.153 330.274 0.084 C344.517 -0.006 358.757 0 373 0 L651 0 C665.243 0 679.483 -0.006 693.726 0.084 C705.722 0.153 717.716 0.291 729.709 0.616 C755.843 1.325 782.203 2.863 808.047 7.509 C834.264 12.221 858.664 19.913 882.484 32.037 C905.897 43.955 927.321 59.526 945.898 78.103 C964.474 96.679 980.046 118.104 991.963 141.516 C1004.088 165.336 1011.779 189.736 1016.492 215.954 C1021.137 241.797 1022.675 268.158 1023.384 294.291 C1023.709 306.284 1023.847 318.278 1023.916 330.274 C1024.006 344.517 1024 358.757 1024 373 Z"/>
    <path class="st6" d="M1024 651 C1024 665.243 1024.006 679.483 1023.916 693.726 C1023.847 705.722 1023.709 717.716 1023.384 729.709 C1022.675 755.843 1021.137 782.203 1016.492 808.047 C1011.779 834.264 1004.088 858.664 991.963 882.484 C980.046 905.897 964.474 927.321 945.898 945.898 C927.321 964.474 905.897 980.046 882.484 991.963 C858.664 1004.088 834.264 1011.779 808.047 1016.492 C782.203 1021.137 755.843 1022.675 729.709 1023.384 C717.716 1023.709 705.722 1023.847 693.726 1023.916 C679.483 1024.006 665.243 1024 651 1024 L373 1024 C358.757 1024 344.517 1024.006 330.274 1023.916 C318.278 1023.847 306.284 1023.709 294.291 1023.384 C268.158 1022.675 241.797 1021.137 215.954 1016.492 C189.736 1011.779 165.336 1004.088 141.516 991.963 C118.104 980.046 96.679 964.474 78.103 945.898 C59.526 927.321 43.955 905.897 32.037 882.484 C19.913 858.664 12.221 834.264 7.509 808.047 C2.863 782.203 1.325 755.843 0.617 729.709 C0.291 717.716 0.153 705.722 0.084 693.726 C-0.006 679.483 0 665.243 0 651 L0 373 C0 358.757 -0.006 344.517 0.084 330.274 C0.153 318.278 0.291 306.284 0.617 294.291 C1.325 268.158 2.863 241.797 7.509 215.954 C12.221 189.736 19.913 165.336 32.037 141.516 C43.955 118.104 59.526 96.679 78.103 78.103 C96.679 59.526 118.104 43.955 141.516 32.037 C165.336 19.913 189.736 12.221 215.954 7.509 C241.797 2.863 268.158 1.325 294.291 0.616 C306.284 0.291 318.278 0.153 330.274 0.084 C344.517 -0.006 358.757 0 373 0 L651 0 C665.243 0 679.483 -0.006 693.726 0.084 C705.722 0.153 717.716 0.291 729.709 0.616 C755.843 1.325 782.203 2.863 808.047 7.509 C834.264 12.221 858.664 19.913 882.484 32.037 C905.897 43.955 927.321 59.526 945.898 78.103 C964.474 96.679 980.046 118.104 991.963 141.516 C1004.088 165.336 1011.779 189.736 1016.492 215.954 C1021.137 241.797 1022.675 268.158 1023.384 294.291 C1023.709 306.284 1023.847 318.278 1023.916 330.274 C1024.006 344.517 1024 358.757 1024 373 Z"/>
  </g>
  <g>
    <g class="st9">
      <path class="st3" d="M417,296v440"/>
      <path class="st3" d="M417,500h74c74,0,126,52,126,126v20"/>
    </g>
    <g>
      <path class="st5" d="M417,284v440"/>
      <path class="st4" d="M417,488h74c74,0,126,52,126,126v20"/>
    </g>
    <g class="st8">
      <circle cx="417" cy="298" r="60"/>
      <circle cx="417" cy="518" r="60"/>
      <circle cx="417" cy="738" r="60"/>
      <circle cx="617" cy="648" r="60"/>
    </g>
    <g>
      <circle class="st1" cx="417" cy="284" r="58"/>
      <circle class="st0" cx="417" cy="504" r="58"/>
      <circle class="st2" cx="417" cy="724" r="58"/>
      <circle class="st10" cx="617" cy="634" r="58"/>
    </g>
  </g>
  </g>
</svg>
